<?xml version="1.0" encoding="UTF-8"?><svg id="Livello_1" xmlns="http://www.w3.org/2000/svg" viewBox="0 0 464.47 310.24"><defs><style>.cls-1{fill:#048092;}.cls-2{fill:#fff;}</style></defs><path class="cls-2" d="M120.95,7.42h25.93c.51,0,.93,.42,.93,.93v29.14c0,.51,.42,.93,.93,.93h22.72c.51,0,.93-.42,.93-.93V8.35c0-.51,.42-.93,.93-.93h24.86c.51,0,.93,.42,.93,.93V95.03c0,.51-.42,.93-.93,.93h-25.4c-.51,0-.93-.42-.93-.93v-30.03c0-.51-.42-.93-.93-.93h-23.08c-.51,0-.93,.42-.93,.93v30.03c0,.51-.42,.93-.93,.93h-25.04c-.51,0-.93-.42-.93-.93V8.35c0-.51,.42-.93,.93-.93Z"/><path class="cls-2" d="M245.61,4.78c-24.46,0-44.29,20.76-44.29,46.36s18.4,44.82,41.61,46.27c.15,0,.28-.1,.29-.25l.78-11.91c.01-.22,.2-.38,.42-.36l29.64,2.7c.28,.03,.55-.06,.75-.25,9.38-8.53,15.09-22.18,15.09-36.2,0-25.6-19.83-46.36-44.29-46.36Zm0,64.03c-9.23,0-16.71-7.66-16.71-17.12s7.48-17.12,16.71-17.12,16.71,7.66,16.71,17.12-7.48,17.12-16.71,17.12Z"/><path class="cls-2" d="M134.99,107.32c-25.33,0-45.87,21.19-45.87,47.32s20.54,47.32,45.87,47.32,45.87-21.19,45.87-47.32-20.54-47.32-45.87-47.32Zm0,65.35c-9.55,0-17.3-7.82-17.3-17.47s7.75-17.47,17.3-17.47,17.3,7.82,17.3,17.47-7.75,17.47-17.3,17.47Z"/><path class="cls-2" d="M283.33,6.63h27.99c.44,0,.81,.3,.91,.73l9.25,42.04c.21,.96,1.58,.98,1.81,.02l10.07-42.08c.1-.42,.47-.71,.9-.71h18.03c.42,0,.8,.29,.9,.7l10.79,42.32c.24,.94,1.59,.93,1.81-.02l9.8-42.28c.1-.42,.47-.72,.91-.72h27.46c.61,0,1.06,.58,.9,1.17l-23.3,87.39c-.11,.43-.52,.72-.96,.69l-24.73-1.71c-.4-.03-.74-.31-.84-.69l-10.46-40.38c-.24-.93-1.57-.93-1.8,0l-9.57,38.29c-.11,.43-.51,.73-.95,.7l-27.06-1.54c-.4-.02-.74-.3-.85-.69L282.43,7.79c-.16-.59,.29-1.17,.9-1.17Z"/><path class="cls-2" d="M194.36,198.8h25.33c.41,0,.74-.33,.74-.74v-60.74c0-.41,.33-.74,.74-.74h18.3c.31,0,.56-.25,.56-.56v-23.87c0-.41-.33-.74-.74-.74h-63.56c-.41,0-.74,.33-.74,.74v24.32c0,.41,.33,.74,.74,.74h17.18c.41,0,.74,.33,.74,.74v60.11c0,.41,.33,.74,.74,.74Z"/><path class="cls-1" d="M118.86,213.32h58.69c.26,0,.48,.21,.48,.48v23.75c0,.26-.21,.48-.48,.48h-29.99c-.26,0-.48,.21-.48,.48v9.09c0,.26,.21,.48,.48,.48h24.83c.26,0,.48,.21,.48,.48v19.67c0,.26-.21,.48-.48,.48h-25.1c-.26,0-.48,.21-.48,.48v9.9c0,.26,.21,.48,.48,.48h31.26c.26,0,.48,.21,.48,.48v24.29c0,.26-.21,.48-.48,.48h-59.69c-.26,0-.48-.21-.48-.48v-90.53c0-.26,.21-.48,.48-.48Z"/><path class="cls-1" d="M183.45,213.8v89.45c0,.26,.21,.48,.48,.48h27.28c.26,0,.48-.21,.48-.48v-42.87c0-.49,.66-.66,.9-.23l17.43,31.39c.08,.15,.24,.25,.42,.25h7.03c.18,0,.34-.1,.42-.25l16.61-31.3c.23-.44,.9-.27,.9,.22v43.88c0,.26,.21,.48,.48,.48h27.82c.26,0,.48-.21,.48-.48v-90.53c0-.26-.21-.48-.48-.48h-29.64c-.18,0-.34,.1-.43,.26l-19.4,37.49c-.18,.34-.66,.35-.85,0l-20.2-37.5c-.08-.16-.25-.25-.42-.25h-28.83c-.26,0-.48,.21-.48,.48Z"/><rect class="cls-1" x="296.93" y="248.89" width="153.93" height="55.93" rx=".48" ry=".48"/><rect class="cls-2" x="247.95" y="142.87" width="169.42" height="55.93" rx="1.09" ry="1.09"/><path class="cls-1" d="M453.24,213.32h-67.14c-.16,0-.31,.08-.39,.21l-.06,.09c-.88,5.7-5.8,10.06-11.74,10.06s-11.03-4.52-11.79-10.36h-67.55c-.26,0-.48,.21-.48,.48v24.29c0,.26,.21,.48,.48,.48h158.67c.26,0,.48-.21,.48-.48v-24.29c0-.26-.21-.48-.48-.48Z"/><path class="cls-2" d="M416.31,107.03l-70.11-6.85c-1.72,4.44-6.02,7.59-11.07,7.59-5.88,0-10.75-4.28-11.7-9.89l-72.76-5.6c-.6-.05-1.12,.4-1.17,1l-1.56,20.81c0,1.62,1.24,2.97,2.85,3.1l163.64,13.39c.6,.05,1.12-.4,1.17-1l1.67-21.38c.05-.59-.39-1.11-.98-1.17Z"/><path class="cls-2" d="M90.79,200.3l-12.15-.04c-.09,0-.16-.06-.18-.14l-2.13-8.48c-.04-.16-.24-.19-.33-.06-8.66,12.19-28.82,10.28-28.82,10.28-.19,0-.39-.03-.58-.05-14.02-.53-26.16-7.72-34.43-21.15-13.49-21.9-7.32-52.54,13.39-66.58,20.12-13.63,47.76-8.73,62.77,12.12,.06,.09,.04,.21-.05,.27-7.26,5.07-14.52,10.17-21.66,15.16h-.09c-3.64-4.05-8.88-6.6-14.73-6.6-2.95,0-5.75,.66-8.27,1.83-1.2,.48-2.33,1.14-3.37,1.98-4.95,3.61-8.16,9.43-8.16,15.99,0,7.72,4.43,14.49,10.9,17.75,1.2,.66,2.49,1.16,3.79,1.49,1.49,.39,3.05,.63,4.67,.64,.06,0,.16,.02,.22,.02h.32c2.14,.02,3.93-.31,5.43-.82,4.81-1.7,6.64-5.42,7.06-6.43,.05-.13-.04-.26-.18-.26h-15.81c-.11,0-.19-.09-.19-.19v-17.77c0-.11,.09-.19,.19-.19h41.43l1.14,51.02c0,.11-.08,.2-.19,.19Z"/></svg>