<?xml version="1.0" standalone="no"?>
<!DOCTYPE svg PUBLIC "-//W3C//DTD SVG 20010904//EN"
 "http://www.w3.org/TR/2001/REC-SVG-20010904/DTD/svg10.dtd">
<svg version="1.0" xmlns="http://www.w3.org/2000/svg"
 width="2048.000000pt" height="1325.000000pt" viewBox="0 0 2048.000000 1325.000000"
 preserveAspectRatio="xMidYMid meet">

<g transform="translate(0.000000,1325.000000) scale(0.100000,-0.100000)"
fill="#000000" stroke="none">
<path d="M0 6625 l0 -6625 10240 0 10240 0 0 6625 0 6625 -10240 0 -10240 0 0
-6625z m10767 3151 c230 -49 424 -166 555 -336 285 -369 289 -891 11 -1265
-96 -128 -76 -120 -266 -106 -89 6 -207 16 -262 21 -171 15 -275 23 -276 19 0
-2 -6 -69 -12 -149 l-12 -145 -50 3 c-70 4 -185 37 -270 76 -342 158 -547 497
-547 906 -2 493 302 882 762 975 89 18 283 18 367 1z m-2267 -351 l0 -335 260
0 260 0 0 335 0 335 290 0 290 0 0 -960 0 -960 -290 0 -290 0 0 345 0 345
-260 0 -260 0 0 -345 0 -345 -290 0 -290 0 0 960 0 960 290 0 290 0 0 -335z
m3494 318 c2 -10 27 -121 55 -248 28 -126 67 -302 86 -390 53 -242 76 -339 80
-343 2 -2 6 5 9 15 7 24 246 972 246 978 0 3 92 5 205 5 l205 0 6 -27 c30
-131 245 -967 249 -971 5 -5 13 25 29 108 8 41 36 165 61 275 86 374 126 550
132 583 l6 32 308 0 c181 0 309 -4 309 -9 0 -18 -32 -137 -137 -506 -57 -203
-122 -437 -144 -520 -22 -82 -62 -226 -89 -320 -27 -93 -72 -253 -100 -355
-28 -102 -54 -188 -58 -192 -4 -4 -68 -1 -142 7 -74 9 -193 21 -265 28 l-130
12 -11 55 c-16 75 -213 850 -223 875 -6 14 -20 -31 -53 -165 -53 -216 -180
-713 -184 -719 -2 -2 -110 6 -241 18 -389 35 -351 28 -359 64 -3 18 -62 230
-131 472 -68 242 -131 467 -139 500 -15 59 -102 371 -170 611 -19 67 -34 127
-34 133 0 8 89 11 309 11 286 0 310 -1 315 -17z m-1005 -1828 c767 -69 920
-82 1110 -96 79 -5 148 -12 152 -15 5 -3 9 -14 9 -25 0 -50 57 -115 130 -148
53 -24 154 -28 204 -7 49 20 103 73 116 111 9 28 16 34 33 30 12 -2 94 -11
182 -19 88 -9 300 -29 470 -46 171 -17 380 -37 465 -45 334 -32 375 -37 382
-43 4 -4 3 -54 -2 -112 -5 -58 -14 -171 -21 -252 -8 -110 -15 -148 -25 -148
-7 0 -131 11 -276 25 -145 13 -436 40 -648 60 -212 19 -482 44 -600 55 -118
11 -298 27 -400 36 -102 9 -329 29 -505 45 -176 16 -473 43 -660 59 -187 17
-358 36 -379 43 -60 18 -81 55 -80 135 1 71 23 348 30 370 4 16 -8 16 313 -13z
m-4384 -357 c124 -17 253 -70 370 -154 63 -44 168 -149 200 -198 l19 -29 -29
-23 c-17 -13 -68 -50 -115 -82 -71 -48 -224 -155 -301 -211 -17 -12 -24 -9
-65 29 -25 23 -71 54 -102 68 -49 23 -70 27 -152 27 -83 0 -102 -3 -150 -27
-75 -37 -137 -100 -174 -178 -25 -54 -31 -80 -34 -156 -7 -143 29 -244 116
-331 67 -67 137 -93 251 -93 140 0 246 47 294 129 l18 31 -180 0 -181 0 0 195
0 195 448 1 c246 1 452 1 459 0 7 -1 14 18 18 46 40 290 254 572 529 698 216
99 524 105 742 14 194 -81 352 -223 454 -410 l40 -74 2 260 3 260 695 0 695 0
3 -277 2 -278 -210 0 -210 0 0 -658 c0 -362 -2 -661 -4 -663 -2 -2 -131 -3
-285 -1 l-281 3 0 659 0 660 -195 0 c-107 0 -195 -2 -195 -5 0 -3 11 -42 24
-87 85 -295 35 -622 -132 -871 -233 -344 -670 -482 -1082 -342 -252 86 -464
305 -557 575 -18 52 -33 110 -33 128 0 17 -5 32 -11 32 -6 0 -10 -12 -9 -27 1
-16 2 -184 1 -375 l-1 -348 -125 0 -124 0 -15 53 c-8 28 -18 67 -21 84 -4 18
-11 35 -16 39 -5 3 -35 -18 -67 -46 -64 -58 -185 -120 -282 -145 -91 -23 -263
-31 -356 -15 -83 13 -231 57 -285 85 -231 119 -410 351 -480 623 -27 103 -35
286 -19 404 56 411 355 739 733 803 147 25 199 26 362 3z m7586 -1273 c1 -322
2 -591 3 -597 1 -7 -1 -15 -5 -18 -4 -3 -806 -4 -1783 -2 l-1776 2 0 600 0
600 1780 0 1780 0 1 -585z"/>
<path d="M10473 9176 c-165 -53 -253 -184 -253 -376 0 -183 83 -312 238 -370
46 -18 74 -21 143 -18 75 3 95 8 155 38 81 42 141 109 174 197 17 45 22 79 22
153 0 167 -65 284 -197 350 -61 31 -80 35 -155 37 -51 2 -102 -3 -127 -11z"/>
<path d="M8125 6977 c-97 -33 -168 -94 -218 -192 -30 -57 -32 -65 -32 -180 0
-116 1 -123 33 -187 36 -74 96 -133 170 -170 40 -20 63 -23 152 -23 96 0 110
2 163 29 103 53 167 141 193 269 37 178 -50 364 -204 435 -68 31 -192 40 -257
19z"/>
</g>
</svg>
